<svg xmlns="http://www.w3.org/2000/svg" fill="none" viewBox="0 0 24 24" stroke-width="1.5"><path stroke="#000000" stroke-linecap="round" stroke-linejoin="round" stroke-miterlimit="10" d="M3.75 1.84999L0.75 3.84999L3.75 5.84999H7.75L10.75 3.84999L7.75 1.84999H3.75Z"></path><path stroke="#000000" stroke-linecap="round" stroke-linejoin="round" stroke-miterlimit="10" d="M0.75 3.84999V14.05"></path><path stroke="#000000" stroke-linecap="round" stroke-linejoin="round" stroke-miterlimit="10" d="M3.75 5.84999V8.24999"></path><path stroke="#000000" stroke-linecap="round" stroke-linejoin="round" stroke-miterlimit="10" d="M7.75 5.84999V12.25"></path><path stroke="#000000" stroke-linecap="round" stroke-linejoin="round" stroke-miterlimit="10" d="M10.75 3.84999V10.25"></path><path stroke="#000000" stroke-linecap="round" stroke-linejoin="round" stroke-miterlimit="10" d="M3.75 12.25L0.75 14.25L3.75 16.25H7.75L10.75 14.25L7.75 12.25H3.75Z"></path><path stroke="#000000" stroke-linecap="round" stroke-linejoin="round" stroke-miterlimit="10" d="M0.75 14.25V19.2385"></path><path stroke="#000000" stroke-linecap="round" stroke-linejoin="round" stroke-miterlimit="10" d="M3.75 16.25V19.2492"></path><path stroke="#000000" stroke-linecap="round" stroke-linejoin="round" stroke-miterlimit="10" d="M7.75 16.25V18.3415"></path><path stroke="#000000" stroke-linecap="round" stroke-linejoin="round" stroke-miterlimit="10" d="M10.75 14.25V21.25"></path><path stroke="#000000" stroke-linecap="round" stroke-linejoin="round" stroke-miterlimit="10" d="M10.75 10.25L7.75 12.25L10.75 14.25H14.75L17.75 12.25L14.75 10.25C14.75 10.25 10.25 10.25 10.75 10.25Z"></path><path stroke="#000000" stroke-linecap="round" stroke-linejoin="round" stroke-miterlimit="10" d="M13.75 19.25L10.75 21.25L13.75 23.25H17.75L20.75 21.25L17.75 19.25H13.75Z"></path><path stroke="#000000" stroke-linecap="round" stroke-linejoin="round" stroke-miterlimit="10" d="M0.75 23.25H3.75L6.75 21.25L3.75 19.25H0.75"></path><path stroke="#000000" stroke-linecap="round" stroke-linejoin="round" stroke-miterlimit="10" d="M13.75 23.25L10.75 21.25C10.75 21.25 6.25 21.25 6.75 21.25L3.75 23.25"></path><path stroke="#000000" stroke-linecap="round" stroke-linejoin="round" stroke-miterlimit="10" d="M14.75 14.25V16.5419"></path><path stroke="#000000" stroke-linecap="round" stroke-linejoin="round" stroke-miterlimit="10" d="M17.75 12.25V19.25"></path><path stroke="#000000" stroke-linecap="round" stroke-linejoin="round" stroke-miterlimit="10" d="M23.25 17.25H20.75L17.75 19.25L20.75 21.25H23.25"></path><path stroke="#000000" stroke-linecap="round" stroke-linejoin="round" stroke-miterlimit="10" d="M23.25 2.29965C21.9942 2.29965 20.9739 1.67174 20.2675 0.80838C19.5611 1.67174 18.5408 2.29965 17.285 2.29965C16.0292 2.29965 15.0088 1.67174 14.3024 0.80838C13.9125 1.30976 13.3643 1.73206 12.7422 1.99108"></path><path stroke="#000000" stroke-linecap="round" stroke-linejoin="round" stroke-miterlimit="10" d="M14.4495 6.90312C15.3365 6.75528 16.1496 6.23787 16.667 5.57263C17.3322 6.38571 18.2931 6.97703 19.4758 6.97703C20.6584 6.97703 21.6193 6.38571 22.2846 5.57263C22.5063 5.86829 22.802 6.16396 23.1716 6.3857"></path></svg>