<svg xmlns="http://www.w3.org/2000/svg" fill="none" viewBox="0 0 24 24" stroke-width="1.5"><path stroke="currentColor" stroke-linecap="round" stroke-linejoin="round" stroke-miterlimit="10" d="M0.75 22.1855C0.75 21.3739 1.5 20.6638 2.35714 20.6638C2.78571 20.6638 3.21429 20.8667 3.53572 21.0696C3.85715 19.9537 4.82143 19.1421 6.10714 19.1421C7.60714 19.1421 8.78571 20.258 8.78571 21.6783"></path><path stroke="currentColor" stroke-linecap="round" stroke-linejoin="round" stroke-miterlimit="10" d="M14.7857 21.5768C15.1071 20.4609 16.0714 19.6494 17.3571 19.6494C18.8571 19.6494 20.0357 20.7653 20.0357 22.1855V23.2C20.0357 22.3884 20.7857 21.6783 21.6428 21.6783C22.5 21.6783 23.25 22.3884 23.25 23.2"></path><path stroke="currentColor" stroke-linecap="round" stroke-linejoin="round" stroke-miterlimit="10" d="M0.75 13.35V16.2559"></path><path stroke="currentColor" stroke-linecap="round" stroke-linejoin="round" stroke-miterlimit="10" d="M23.25 17.15L4.25 15.85L0.75 13.35L2.06588 11.85H5.60975"></path><path stroke="currentColor" stroke-linecap="round" stroke-linejoin="round" stroke-miterlimit="10" d="M21.25 11.85L23.25 13.35"></path><path stroke="currentColor" stroke-linecap="round" stroke-linejoin="round" stroke-miterlimit="10" d="M15.25 11.85H9.25V6.85001L12.25 3.35001L15.25 6.85001V11.85Z"></path><path stroke="currentColor" stroke-linecap="round" stroke-linejoin="round" stroke-miterlimit="10" d="M21.25 11.85H15.25V6.85001H17.75V3.85001H21.25V11.85Z"></path><path stroke="currentColor" stroke-linecap="round" stroke-linejoin="round" stroke-miterlimit="10" d="M18.25 10.35V11.35"></path><path stroke="currentColor" stroke-linecap="round" stroke-linejoin="round" stroke-miterlimit="10" d="M12.25 8.35001V8.85001"></path><path stroke="currentColor" stroke-linecap="round" stroke-linejoin="round" stroke-miterlimit="10" d="M9.25 6.85001L9.75 0.850006H14.75L15.25 6.85001"></path><path stroke="currentColor" stroke-linecap="round" stroke-linejoin="round" stroke-miterlimit="10" d="M9.25001 11.85H5.45001V3.85001L7.35001 1.35001L9.25001 3.85001V11.85Z"></path><path stroke="currentColor" stroke-linecap="round" stroke-linejoin="round" d="M5.4375 7H2.125V11.9375"></path></svg>