<svg xmlns="http://www.w3.org/2000/svg" fill="none" viewBox="0 0 24 24" stroke-width="1.5"><path stroke="currentColor" stroke-linecap="round" stroke-linejoin="round" stroke-miterlimit="10" d="M0.75 3.5H4.45V11.5894L6.95 15.8626V23.2M4.45 9.20001H10.8083L11.9299 14.2L13.5498 15.2V20.2M11.4812 12.2H15.9767L16.9767 14.8L18.9767 16.2V18.8M16.669 14H23.15M0.849976 23.2H23.15"></path><path stroke="currentColor" stroke-linecap="round" stroke-linejoin="round" stroke-miterlimit="10" d="M18.25 7.79999C19.3546 7.79999 20.25 6.90456 20.25 5.79999C20.25 4.69542 19.3546 3.79999 18.25 3.79999C17.1454 3.79999 16.25 4.69542 16.25 5.79999C16.25 6.90456 17.1454 7.79999 18.25 7.79999Z"></path><path stroke="currentColor" stroke-linecap="round" stroke-linejoin="round" stroke-miterlimit="10" d="M18.25 0.799988V1.19999"></path><path stroke="currentColor" stroke-linecap="round" stroke-linejoin="round" stroke-miterlimit="10" d="M14.75 2.20001L15.05 2.60001"></path><path stroke="currentColor" stroke-linecap="round" stroke-linejoin="round" stroke-miterlimit="10" d="M13.25 5.79999H13.75"></path><path stroke="currentColor" stroke-linecap="round" stroke-linejoin="round" stroke-miterlimit="10" d="M21.75 2.20001L21.45 2.60001"></path><path stroke="currentColor" stroke-linecap="round" stroke-linejoin="round" stroke-miterlimit="10" d="M23.25 5.79999H22.75"></path><path stroke="currentColor" stroke-linecap="round" stroke-linejoin="round" stroke-miterlimit="10" d="M18.25 10.8V10.2"></path><path stroke="currentColor" stroke-linecap="round" stroke-linejoin="round" stroke-miterlimit="10" d="M21.75 9.29999L21.45 8.89999"></path><path stroke="currentColor" stroke-linecap="round" stroke-linejoin="round" stroke-miterlimit="10" d="M14.75 9.29999L15.05 8.89999"></path></svg>