<svg xmlns="http://www.w3.org/2000/svg" viewBox="0 0 24 24" stroke-width="1.5"><path d="M3.566 23.25L7.92 5.34 18.123 7.82 14.372 23.25" fill="none" stroke="currentColor" stroke-linecap="round" stroke-linejoin="round"></path><path d="M9.626 3.623H17.125999999999998V6.623H9.626z" fill="none" stroke="currentColor" stroke-linecap="round" stroke-linejoin="round" transform="translate(1.589 -3.015) rotate(13.665)"></path><path d="M5.045 10.816L18.163 14.005" fill="none" stroke="currentColor" stroke-linecap="round" stroke-linejoin="round"></path><path d="M3.628 16.646L16.746 19.835" fill="none" stroke="currentColor" stroke-linecap="round" stroke-linejoin="round"></path><path d="M6.463 4.985L19.581 8.175" fill="none" stroke="currentColor" stroke-linecap="round" stroke-linejoin="round"></path><path d="M8.629 2.425L18.832 4.905" fill="none" stroke="currentColor" stroke-linecap="round" stroke-linejoin="round"></path><path d="M14.439 0.75L13.731 3.665" fill="none" stroke="currentColor" stroke-linecap="round" stroke-linejoin="round"></path><path d="M7.425,23.25l.418-1.72a.751.751,0,0,1,.906-.552l1.458.355a.751.751,0,0,1,.552.906l-.246,1.011" fill="none" stroke="currentColor" stroke-linecap="round" stroke-linejoin="round"></path><path d="M1.5 23.25L22.5 23.25" fill="none" stroke="currentColor" stroke-linecap="round" stroke-linejoin="round"></path></svg>