<svg xmlns="http://www.w3.org/2000/svg" viewBox="0 0 24 24"><g><line x1="19.17" y1="19.45" x2="13.89" y2="20.51" fill="none" stroke="#adaa97" stroke-linecap="round" stroke-linejoin="round" stroke-width="1.5px"></line><path d="M14.5,14.58,12,15.6a1.6,1.6,0,0,1-1.31-2.92l2.47-1.2a2.25,2.25,0,0,1,1-.23,2.36,2.36,0,0,1,.75.13l4.51,1.73" fill="none" stroke="#adaa97" stroke-linecap="round" stroke-linejoin="round" stroke-width="1.5px"></path><path d="M4.5,20.58H6.36L9.47,23a.92.92,0,0,0,1.26.09l4.66-3.74A.9.9,0,0,0,15.53,18L13,15.21" fill="none" stroke="#adaa97" stroke-linecap="round" stroke-linejoin="round" stroke-width="1.5px"></path><path d="M10.5,12.81l-.32-.27A1.94,1.94,0,0,0,9,12.16a2,2,0,0,0-.73.14L4.5,13.92" fill="none" stroke="#adaa97" stroke-linecap="round" stroke-linejoin="round" stroke-width="1.5px"></path><path d="M1.17,21.92h2A1.34,1.34,0,0,0,4.5,20.58V13.92a1.34,1.34,0,0,0-1.33-1.34h-2" fill="none" stroke="#adaa97" stroke-linecap="round" stroke-linejoin="round" stroke-width="1.5px"></path><path d="M22.5,21.92h-2a1.33,1.33,0,0,1-1.33-1.34V13.92a1.33,1.33,0,0,1,1.33-1.34h2" fill="none" stroke="#adaa97" stroke-linecap="round" stroke-linejoin="round" stroke-width="1.5px"></path><polyline points="21.58 9 11.83 0.75 2.08 9" fill="none" stroke="#adaa97" stroke-linecap="round" stroke-linejoin="round" stroke-width="1.5px"></polyline><polyline points="17.08 1.5 20.08 1.5 20.08 4.5" fill="none" stroke="#adaa97" stroke-linecap="round" stroke-linejoin="round" stroke-width="1.5px"></polyline></g></svg>